HIERARCHY
ROOT Hips
{
    OFFSET 0.000000 0.000000 0.000000
    CHANNELS 6 Xposition Yposition Zposition Zrotation Xrotation Yrotation
    JOINT Spine
    {
        OFFSET -0.000000 7.979263 0.000000
        CHANNELS 3 Zrotation Xrotation Yrotation
        JOINT Spine1
        {
            OFFSET -0.000000 24.719021 0.000000
            CHANNELS 3 Zrotation Xrotation Yrotation
            JOINT Neck
            {
                OFFSET -0.000000 24.617504 2.237955
                CHANNELS 3 Zrotation Xrotation Yrotation
                JOINT Head
                {
                    OFFSET -0.000000 13.623132 -1.946162
                    CHANNELS 3 Zrotation Xrotation Yrotation
                    End Site
                    {
                        OFFSET -0.000000 24.327021 0.000000
                    }
                }
            }
            JOINT LeftShoulder
            {
                OFFSET 3.885773 23.018444 -0.302444
                CHANNELS 3 Zrotation Xrotation Yrotation
                JOINT LeftArm
                {
                    OFFSET 10.447750 0.000000 0.000000
                    CHANNELS 3 Zrotation Xrotation Yrotation
                    JOINT LeftForeArm
                    {
                        OFFSET 29.090096 0.000000 0.000000
                        CHANNELS 3 Zrotation Xrotation Yrotation
                        JOINT LeftHand
                        {
                            OFFSET 28.893339 0.000000 0.000000
                            CHANNELS 3 Zrotation Xrotation Yrotation
                            End Site
                            {
                                OFFSET 14.596213 0.000000 0.000000
                            }
                        }
                    }
                }
            }
            JOINT RightShoulder
            {
                OFFSET -3.864586 23.018444 -0.302444
                CHANNELS 3 Zrotation Xrotation Yrotation
                JOINT RightArm
                {
                    OFFSET -10.447750 0.000000 0.000000
                    CHANNELS 3 Zrotation Xrotation Yrotation
                    JOINT RightForeArm
                    {
                        OFFSET -29.090096 0.000000 0.000000
                        CHANNELS 3 Zrotation Xrotation Yrotation
                        JOINT RightHand
                        {
                            OFFSET -28.893339 0.000000 0.000000
                            CHANNELS 3 Zrotation Xrotation Yrotation
                            End Site
                            {
                                OFFSET -14.596213 0.000000 0.000000
                            }
                        }
                    }
                }
            }
        }
    }
    JOINT LeftUpLeg
    {
        OFFSET 9.730808 0.000000 0.000000
        CHANNELS 3 Zrotation Xrotation Yrotation
        JOINT LeftLeg
        {
            OFFSET -0.000000 -34.800129 0.000000
            CHANNELS 3 Zrotation Xrotation Yrotation
            JOINT LeftFoot
            {
                OFFSET -0.000000 -44.597416 0.000000
                CHANNELS 3 Zrotation Xrotation Yrotation
                JOINT LeftToeBase
                {
                    OFFSET -0.000000 -6.325025 14.596213
                    CHANNELS 3 Zrotation Xrotation Yrotation
                    End Site
                    {
                        OFFSET -0.000000 0.000000 3.892323
                    }
                }
            }
        }
    }
    JOINT RightUpLeg
    {
        OFFSET -9.730808 0.000000 0.000000
        CHANNELS 3 Zrotation Xrotation Yrotation
        JOINT RightLeg
        {
            OFFSET -0.000000 -34.800129 0.000000
            CHANNELS 3 Zrotation Xrotation Yrotation
            JOINT RightFoot
            {
                OFFSET -0.000000 -44.597416 0.000000
                CHANNELS 3 Zrotation Xrotation Yrotation
                JOINT RightToeBase
                {
                    OFFSET -0.000000 -6.325025 14.596213
                    CHANNELS 3 Zrotation Xrotation Yrotation
                    End Site
                    {
                        OFFSET -0.000000 0.000000 3.892323
                    }
                }
            }
        }
    }
}
MOTION
Frames:    10
Frame Time:    0.008333
6.494287    88.136200    50.268589    -1.042385    1.374554    91.961617    -3.815454    -10.925941    -1.998286    3.536337    -3.271353    -1.532274    -2.111491    21.021334    4.765082    -2.578440    -0.033207    4.495134    11.385763    -0.392371    -9.172680    -16.040531    13.568730    3.750613    3.821047    -5.146197    2.600658    -11.467535    -5.241757    0.091421    -16.354097    0.148217    -3.979388    11.071995    7.600508    11.395015    0.305855    2.204767    -3.530035    7.418640    2.323457    1.686425    -0.230111    3.648832    -10.933122    -0.249250    -0.310476    3.537750    -6.322325    5.047574    13.403654    0.000000    0.000000    0.000000    -2.479217    8.500426    -0.728649    2.494722    -2.970448    -5.680044    2.541084    1.682982    -10.352545    0.000000    0.000000    0.000000    
6.495775    88.136040    50.269161    -1.039387    1.381042    91.970436    -3.815708    -10.929645    -2.000768    3.522913    -3.259458    -1.535304    -2.082521    21.010395    4.755679    -2.602162    -0.034978    4.483485    11.409783    -0.384122    -9.162484    -16.036991    13.548430    3.717912    3.823321    -5.159343    2.604830    -11.472519    -5.255064    0.091116    -16.339046    0.144321    -3.982277    11.068101    7.592196    11.394775    0.297398    2.214779    -3.539371    7.373635    2.332904    1.691410    -0.237447    3.647189    -10.934356    -0.217612    -0.289873    3.559219    -6.369314    5.045565    13.303282    0.000000    0.000000    0.000000    -2.487177    8.510936    -0.711128    2.500889    -2.980287    -5.683134    2.542635    1.682289    -10.380236    0.000000    0.000000    0.000000    
6.495735    88.136093    50.267471    -1.045123    1.386225    91.979233    -3.827185    -10.933170    -2.000577    3.539620    -3.266410    -1.533277    -2.069963    21.006931    4.737535    -2.621114    -0.023735    4.462787    11.417089    -0.377299    -9.183085    -16.052666    13.548229    3.717657    3.829044    -5.171597    2.590789    -11.441474    -5.268741    0.109120    -16.347790    0.130686    -3.990731    11.070319    7.604135    11.385299    0.287144    2.229592    -3.535754    7.352108    2.346792    1.687703    -0.245565    3.638535    -10.946732    -0.245451    -0.293483    3.502773    -6.355396    5.019893    13.450289    0.000000    0.000000    0.000000    -2.497570    8.502530    -0.703846    2.509027    -2.968098    -5.662669    2.550650    1.666317    -10.419069    0.000000    0.000000    0.000000    
6.496969    88.135788    50.269844    -1.043652    1.382770    91.986679    -3.845168    -10.938521    -1.987436    3.560479    -3.250118    -1.518083    -2.022691    21.022772    4.704800    -2.647561    -0.079525    4.425447    11.462140    -0.388546    -9.219927    -16.087212    13.530861    3.692199    3.845138    -5.186510    2.587279    -11.447490    -5.290370    0.173938    -16.340900    0.138372    -4.039165    11.063055    7.596837    11.389613    0.277928    2.217474    -3.533210    7.332237    2.334098    1.687897    -0.243201    3.616855    -10.808199    -0.248967    -0.265907    3.536081    -6.336668    5.040118    13.271502    0.000000    0.000000    0.000000    -2.490362    8.502567    -0.736786    2.507318    -2.961456    -5.614092    2.567173    1.661623    -10.442906    0.000000    0.000000    0.000000    
6.496211    88.135979    50.269020    -1.050669    1.388623    91.997139    -3.859189    -10.941252    -1.993913    3.586203    -3.255153    -1.522296    -2.035547    20.986063    4.689147    -2.645834    -0.029456    4.410662    11.436715    -0.380442    -9.233829    -16.073553    13.541337    3.702250    3.829974    -5.159513    2.580798    -11.380648    -5.259161    0.138099    -16.363363    0.117347    -4.041133    11.072924    7.565313    11.380219    0.282315    2.228942    -3.517445    7.330886    2.345300    1.682624    -0.251896    3.623311    -10.925278    -0.239309    -0.294323    3.684663    -6.348786    5.060012    13.235744    0.000000    0.000000    0.000000    -2.498769    8.495119    -0.711870    2.509955    -2.959708    -5.661148    2.550891    1.659396    -10.425649    0.000000    0.000000    0.000000    
6.493942    88.134087    50.267349    -1.058192    1.393570    92.008522    -3.869374    -10.944093    -1.992206    3.592367    -3.258709    -1.519212    -1.998650    20.986094    4.661805    -2.673141    -0.035181    4.379827    11.452205    -0.380851    -9.275191    -16.091801    13.551969    3.715380    3.833999    -5.140597    2.583065    -11.366997    -5.240643    0.140601    -16.342447    0.128490    -4.063984    11.044382    7.579071    11.382334    0.270328    2.207442    -3.502198    7.394177    2.325099    1.694359    -0.257839    3.605808    -10.933642    -0.239757    -0.280326    3.657947    -6.303391    5.074192    13.231778    0.000000    0.000000    0.000000    -2.499238    8.490126    -0.753669    2.503670    -2.961950    -5.652306    2.572389    1.654449    -10.407096    0.000000    0.000000    0.000000    
6.496837    88.134178    50.269081    -1.049167    1.393905    92.020569    -3.880301    -10.934255    -1.994183    3.611082    -3.256669    -1.519996    -2.123919    21.030815    4.680897    -2.487918    -0.143879    4.417232    11.455030    -0.387156    -9.270543    -16.081608    13.563044    3.678515    3.820215    -5.124916    2.596627    -11.344486    -5.223925    0.128839    -16.351763    0.143112    -4.081662    11.045715    7.566536    11.382608    0.258833    2.193275    -3.479984    7.451456    2.312123    1.705488    -0.257516    3.611634    -10.920843    -0.215914    -0.248070    3.486500    -6.340716    5.027109    13.317991    0.000000    0.000000    0.000000    -2.501011    8.498999    -0.735757    2.511843    -2.954216    -5.632553    2.544813    1.651361    -10.452121    0.000000    0.000000    0.000000    
6.494620    88.131569    50.270802    -1.053743    1.391341    92.027588    -3.878864    -10.931314    -1.996272    3.609676    -3.263665    -1.522166    -2.070362    20.925629    4.686527    -2.539230    0.013988    4.423751    11.467042    -0.351109    -9.288393    -16.078693    13.547763    3.676812    3.819541    -5.125415    2.588882    -11.309495    -5.225835    0.146244    -16.347752    0.124015    -4.077526    11.049055    7.553538    11.363809    0.257306    2.204170    -3.462075    7.522530    2.325261    1.725191    -0.253294    3.601278    -10.918000    -0.211707    -0.237929    3.449682    -6.359711    5.009932    13.325313    0.000000    0.000000    0.000000    -2.493711    8.492723    -0.748373    2.508945    -2.954654    -5.616678    2.542342    1.638613    -10.463776    0.000000    0.000000    0.000000    
6.496255    88.131424    50.271488    -1.046688    1.392251    92.032394    -3.885707    -10.917950    -1.991618    3.621187    -3.274688    -1.516586    -2.050306    20.929396    4.670171    -2.548275    0.006546    4.406132    11.462546    -0.350239    -9.311282    -16.071266    13.532874    3.666501    3.811309    -5.125876    2.590491    -11.238876    -5.228197    0.167950    -16.339903    0.146148    -4.093488    11.036219    7.540449    11.368568    0.250934    2.219498    -3.440723    7.588663    2.342638    1.744430    -0.254977    3.605997    -10.902122    -0.213743    -0.231756    3.461158    -6.364175    5.005719    13.312718    0.000000    0.000000    0.000000    -2.498174    8.505208    -0.690831    2.515483    -2.958267    -5.643521    2.517169    1.635340    -10.496438    0.000000    0.000000    0.000000    
6.495370    88.130119    50.272728    -1.043149    1.393809    92.035187    -3.865564    -10.907340    -1.996085    3.580298    -3.287407    -1.524105    -2.009521    20.959337    4.655202    -2.563295    -0.034846    4.388710    11.482128    -0.326328    -9.317500    -16.069572    13.545051    3.676124    3.821584    -5.142402    2.581135    -11.235586    -5.245350    0.175366    -16.298405    0.140019    -4.062359    11.020402    7.554492    11.353017    0.269800    2.187155    -3.458325    7.506212    2.311130    1.766607    -0.256906    3.602492    -10.886774    -0.212410    -0.206045    3.238787    -6.362554    4.952854    13.502998    0.000000    0.000000    0.000000    -2.490608    8.510629    -0.740106    2.502337    -2.965665    -5.669043    2.527457    1.645985    -10.421082    0.000000    0.000000    0.000000    
